<svg xmlns="http://www.w3.org/2000/svg" width="164" height="47"><g fill-rule="nonzero" fill="none"><path fill="#FFF" d="M55.689 30.732c-2.395 0-4.835-.934-6.362-2.764v9.887H44.53V13.447h4.337l.166 2.685c1.488-2.063 4.13-3.153 6.651-3.153 4.834 0 8.395 3.816 8.395 8.876s-3.556 8.879-8.39 8.877zm-1.486-14.403c-2.81 0-5.081 2.064-5.081 5.528 0 3.465 2.271 5.533 5.081 5.533 2.81 0 5.082-2.063 5.082-5.528 0-3.465-2.272-5.533-5.082-5.533zm27.254 14.554l-.166-2.782c-1.486 2.138-4.13 3.267-6.649 3.264-4.831 0-8.39-3.95-8.39-9.193 0-5.242 3.552-9.195 8.39-9.193 2.52 0 5.163 1.138 6.65 3.266l.165-2.781h4.344v17.419h-4.344zm-5.326-14.438c-2.808 0-5.078 2.138-5.08 5.727-.003 3.59 2.27 5.73 5.078 5.73 2.808 0 5.08-2.138 5.08-5.728 0-3.589-2.27-5.729-5.078-5.729zm24.812 13.837v-9.314c0-3.273-1.099-4.364-3.11-4.364-2.09 0-4.368 1.947-4.368 4.285v9.393H89.06V13.445h4.026l.19 3.12c1.102-2.145 3.568-3.586 6.075-3.586 4.365 0 6 3.119 6 7.287v10.018l-4.408-.002zm20.704-.463l-.165-2.684c-1.488 2.06-4.132 3.149-6.65 3.149-4.834 0-8.395-3.812-8.395-8.867 0-5.054 3.554-8.864 8.395-8.864 2.394 0 4.831.935 6.36 2.761V6.49h4.795v23.33h-4.34zm-5.328-13.921c-2.798 0-5.08 2.06-5.08 5.52 0 3.458 2.27 5.52 5.08 5.52s5.081-2.06 5.081-5.52c0-3.461-2.264-5.52-5.08-5.52zm27.052 14.985l-.165-2.781c-1.488 2.137-4.132 3.263-6.653 3.263-4.833 0-8.394-3.95-8.394-9.194 0-5.244 3.554-9.192 8.394-9.192 2.521 0 5.165 1.138 6.653 3.268l.165-2.783h4.338V30.88l-4.338.002zm-5.328-14.436c-2.798 0-5.08 2.137-5.083 5.726-.002 3.59 2.274 5.72 5.081 5.72 2.808 0 5.083-2.137 5.083-5.727 0-3.589-2.27-5.719-5.08-5.719zm18.781 14.918a13.648 13.648 0 01-6.943-1.964l.763-3.204c1.405.84 3.532 1.924 6.1 1.924 1.847 0 3.131-.56 3.131-2.003 0-1.242-1.325-1.683-3.692-2.243-4.254-.923-5.779-3.166-5.779-5.61 0-2.724 2.127-5.286 6.823-5.286 2.85 0 5.34 1.241 5.89 1.562l-.764 3.046a10.116 10.116 0 00-5.015-1.443c-1.885 0-2.809.64-2.809 1.682 0 1.16 1.205 1.683 3.049 2.124 4.576.96 6.422 3.084 6.422 5.408.009 3.724-2.72 6.007-7.176 6.007zM8.689 2.163h5.43v10.816h-5.43zm0 22.713h5.43v10.816h-5.43z"/><path fill="#FFCA00" d="M8.689 16.224h5.43v4.326h-5.43z"/><path fill="#FFF" d="M0 10.816h5.43v35.692H0zm16.291 22.713h5.43v10.816h-5.43zm0-22.713h5.43v10.816h-5.43z"/><path fill="#E70488" d="M16.291 25.958h5.43v4.326h-5.43z"/><path fill="#FFF" d="M24.98 0h5.43v35.692h-5.43z"/></g></svg>