<svg xmlns="http://www.w3.org/2000/svg" width="77" height="91"><g fill-rule="nonzero" fill="none"><path fill="#ECECEC" d="M3.148 47.876v-9.663H5.3v10.402c.1.838.027 1.687-.216 2.497a6.25 6.25 0 01-1.197 2.217 5.566 5.566 0 01-3.662 1.304L0 53.06c.866 0 1.701-.313 2.345-.88.578-.66.803-1.555.803-4.305zm16.051-1.24c0 1.18 0 2.232.097 3.143h-1.912l-.128-1.87a4.415 4.415 0 01-1.657 1.584 4.526 4.526 0 01-2.246.553c-1.863 0-4.08-.99-4.08-5.028v-6.71h2.152v6.286c0 2.184.691 3.645 2.634 3.645a3.031 3.031 0 002.157-.86 2.904 2.904 0 00.879-2.109v-7.04h2.152v8.344l-.048.063zm4.08-4.59c0-1.46 0-2.655-.096-3.739h1.927l.096 1.964a4.613 4.613 0 011.79-1.685 4.74 4.74 0 012.419-.546c2.859 0 5.01 2.341 5.01 5.83 0 4.117-2.585 6.16-5.38 6.16a4.255 4.255 0 01-2.065-.436 4.12 4.12 0 01-1.58-1.372v6.286h-2.121V42.047zm2.12 3.065c.006.285.038.57.097.849a3.236 3.236 0 001.178 1.757c.582.44 1.298.68 2.034.678 2.265 0 3.598-1.807 3.598-4.431 0-2.294-1.253-4.258-3.518-4.258a3.722 3.722 0 00-2.359 1.094 3.577 3.577 0 00-1.03 2.347v1.964zm12.862-6.814l2.586 6.772c.273.754.562 1.666.754 2.341.225-.691.466-1.57.755-2.388l2.345-6.725h2.265l-3.212 8.17c-1.606 3.929-2.586 5.956-4.064 7.182A5.894 5.894 0 0137.056 55l-.53-1.76a5.73 5.73 0 001.88-1.021 6.305 6.305 0 001.814-2.326c.088-.156.148-.326.177-.503a1.755 1.755 0 00-.145-.55l-4.369-10.575h2.345l.033.032zM52.68 35v3.3h3.084v1.571H52.68v6.191c0 1.414.417 2.232 1.606 2.232.422.006.843-.041 1.253-.142l.096 1.571a5.39 5.39 0 01-1.911.283 3.035 3.035 0 01-1.263-.19 2.984 2.984 0 01-1.066-.69 4.157 4.157 0 01-.835-2.985v-6.286h-1.831v-1.57h1.863v-2.798L52.68 35zm7.048 9.405a3.634 3.634 0 001.094 2.906c.386.378.852.67 1.365.854a3.84 3.84 0 001.605.216 8.003 8.003 0 003.212-.597l.37 1.571a9.802 9.802 0 01-3.935.707 5.552 5.552 0 01-2.31-.335 5.464 5.464 0 01-1.956-1.248 5.33 5.33 0 01-1.244-1.934 5.248 5.248 0 01-.305-2.265c0-3.457 2.104-6.191 5.542-6.191 3.855 0 4.818 3.3 4.818 5.405.02.325.02.65 0 .974H59.68l.048-.063zm6.297-1.57a2.934 2.934 0 00-.704-2.363 3.035 3.035 0 00-1.028-.758 3.086 3.086 0 00-1.256-.274 3.582 3.582 0 00-2.318 1.073 3.427 3.427 0 00-.974 2.321h6.28zm5.225-.965c0-1.352 0-2.514-.096-3.583h1.927v2.247h.096a3.476 3.476 0 011.196-1.759 3.6 3.6 0 012.017-.755c.202-.026.407-.026.61 0v1.964a3.261 3.261 0 00-.739 0 3.037 3.037 0 00-1.952.806 2.912 2.912 0 00-.923 1.865c-.06.322-.092.648-.096.975v6.112h-2.12v-7.857l.08-.015zM69.99 5.166a5.501 5.501 0 01-10.824 1.676A5.5 5.5 0 0164.263.008c.715-.04 1.43.063 2.106.302a5.443 5.443 0 013.621 4.856z"/><path fill="#F37726" d="M38.5 67.13C24.143 67.13 11.525 61.827 5 54c2.532 7.042 7.1 13.118 13.089 17.409C24.078 75.699 31.202 78 38.499 78c7.3 0 14.423-2.3 20.412-6.591C64.901 67.118 69.468 61.042 72 54c-6.509 7.828-19.08 13.13-33.5 13.13zm0-48.26c14.357 0 26.976 5.302 33.5 13.13-2.532-7.042-7.1-13.118-13.089-17.409C52.921 10.301 45.798 8 38.5 8c-7.298 0-14.422 2.3-20.411 6.591C12.099 18.882 7.532 24.958 5 32c6.525-7.845 19.08-13.13 33.5-13.13z"/><path fill="#ECECEC" d="M17.987 83.566a7.43 7.43 0 01-.876 3.968 6.707 6.707 0 01-2.781 2.768 6.093 6.093 0 01-3.743.629c-1.277-.195-2.472-.796-3.432-1.725s-1.641-2.144-1.957-3.491a7.513 7.513 0 01.183-4.074 6.978 6.978 0 012.261-3.272 6.219 6.219 0 013.571-1.36 6.034 6.034 0 012.488.386 6.363 6.363 0 012.16 1.382 6.907 6.907 0 011.506 2.167c.365.821.576 1.712.62 2.622zM6.597 15.999a3.505 3.505 0 01-3.287-2.06 3.496 3.496 0 01.632-3.827 3.494 3.494 0 013.776-.894 3.505 3.505 0 012.281 3.138 3.545 3.545 0 01-3.402 3.643z"/></g></svg>