<svg xmlns="http://www.w3.org/2000/svg" width="112" height="59"><g fill="none" fill-rule="evenodd"><g fill-rule="nonzero"><path fill="#F89939" d="M84.97 50.09c13.49-13.32 15.733-32.704 5.008-43.294-10.724-10.589-30.352-8.375-43.842 4.945-13.49 13.32-9.588 38.77-5.007 43.294 3.702 3.655 30.352 8.375 43.84-4.945z"/><path fill="#3499CD" d="M29.615 30.842c-7.826-7.729-19.216-9.015-25.44-2.87-6.222 6.145-4.92 17.393 2.907 25.12 7.828 7.731 22.782 5.495 25.438 2.87 2.15-2.119 4.924-17.391-2.905-25.12z"/></g><g fill="#FFF" fill-rule="nonzero"><path d="M56.596 46.919c-1.383 1.273-2.597 2.212-3.64 2.815-1.043.606-2.038.908-2.985.908-1.089 0-1.967-.422-2.633-1.266-.667-.845-1-1.977-1-3.403 0-2.135.463-4.698 1.39-7.687.924-2.991 2.05-5.748 3.373-8.27l3.878-1.433a.988.988 0 01.275-.061c.294 0 .538.216.724.648.189.433.284 1.015.284 1.747 0 2.075-.478 4.084-1.436 6.026-.958 1.944-2.453 4.018-4.488 6.225-.082 1.058-.123 1.784-.123 2.181 0 .886.163 1.586.489 2.105.326.52.758.778 1.297.778.55 0 1.136-.197 1.757-.593.62-.398 1.566-1.22 2.838-2.473v1.754zm-5.846-5.964a18.567 18.567 0 003.145-4.828c.804-1.782 1.205-3.315 1.205-4.6 0-.374-.055-.678-.167-.907-.112-.229-.255-.344-.428-.344-.375 0-.923.937-1.64 2.81-.719 1.874-1.423 4.498-2.115 7.87z"/><path d="M68.016 46.919c-1.291 1.273-2.451 2.212-3.48 2.815-1.028.606-2.162.908-3.404.908-1.384 0-2.501-.443-3.352-1.326-.85-.887-1.274-2.05-1.274-3.495 0-2.155.748-4.106 2.246-5.85 1.494-1.745 3.154-2.617 4.976-2.617.946 0 1.703.245 2.274.733.57.489.855 1.129.855 1.922 0 2.106-2.239 3.814-6.717 5.126.407 1.982 1.47 2.975 3.19 2.975.673 0 1.313-.18 1.923-.54.612-.362 1.533-1.164 2.764-2.404v1.753zm-7.999-2.822c2.605-.732 3.908-2.084 3.908-4.057 0-.977-.357-1.465-1.068-1.465-.672 0-1.313.51-1.923 1.534-.612 1.021-.917 2.35-.917 3.988z"/><path d="M84.321 46.919c-1.628 1.546-2.794 2.554-3.495 3.022-.702.468-1.374.701-2.016.701-1.608 0-2.366-1.418-2.275-4.256-1.017 1.454-1.957 2.527-2.817 3.22-.86.691-1.747 1.036-2.664 1.036-.894 0-1.655-.418-2.282-1.257-.627-.84-.938-1.869-.938-3.09 0-1.525.419-2.98 1.258-4.364.84-1.383 1.917-2.5 3.23-3.355 1.312-.855 2.473-1.282 3.48-1.282 1.272 0 2.163.585 2.672 1.754l3.12-1.723h.857l-1.348 4.47c-.692 2.247-1.04 3.789-1.04 4.622 0 .874.31 1.312.932 1.312.395 0 .833-.21 1.312-.634a48.57 48.57 0 002.014-1.93v1.754zm-11.175.84c1.018 0 1.977-.867 2.88-2.6.9-1.735 1.35-3.335 1.35-4.8 0-.568-.128-1.014-.381-1.334-.256-.321-.597-.48-1.023-.48-1.019 0-1.984.864-2.893 2.593-.91 1.73-1.367 3.321-1.367 4.774 0 .55.135.995.405 1.336.27.341.611.511 1.03.511z"/><path d="M95.726 46.919c-2.555 2.502-4.524 3.754-5.908 3.754-.622 0-1.146-.262-1.573-.785-.426-.524-.641-1.173-.641-1.946 0-1.434.77-3.355 2.306-5.766a8.539 8.539 0 01-2.474.808c-.661 1.22-1.7 2.533-3.114 3.935h-.35v-1.372a20.028 20.028 0 002.152-2.655c-.877-.387-1.313-.961-1.313-1.723 0-.784.266-1.62.802-2.511.534-.89 1.269-1.334 2.206-1.334.794 0 1.19.406 1.19 1.22 0 .64-.229 1.556-.688 2.746 1.69-.183 3.166-1.474 4.428-3.875l1.389-.061-1.42 3.905c-.59 1.648-.972 2.77-1.144 3.365-.173.594-.26 1.121-.26 1.578 0 .428.1.77.297 1.022a.962.962 0 00.802.382c.366 0 .718-.125 1.054-.373.335-.251 1.089-.94 2.26-2.068v1.754z"/><path d="M110.719 46.919c-2.351 2.483-4.367 3.723-6.046 3.723-.682 0-1.232-.239-1.649-.717-.418-.478-.626-1.118-.626-1.921 0-1.089.448-2.752 1.344-4.988.478-1.2.718-1.965.718-2.289 0-.326-.128-.489-.382-.489-.142 0-.331.072-.565.213a7.129 7.129 0 00-.749.596c-.254.234-.54.518-.855.853-.275.287-.57.612-.884.977l-.856.993c-.376.457-.61.94-.702 1.448a23.104 23.104 0 00-.306 2.382 39.984 39.984 0 00-.046 2.181l-3.374.792c-.111-1.373-.168-2.395-.168-3.066 0-1.637.19-3.189.573-4.653.382-1.465.994-3.112 1.84-4.943l3.724-.717c-.783 2.106-1.297 3.763-1.541 4.972 1.669-1.86 2.992-3.149 3.973-3.867.98-.717 1.852-1.074 2.614-1.074.518 0 .95.195 1.295.586.347.391.519.882.519 1.47 0 .975-.438 2.582-1.312 4.82-.601 1.535-.902 2.532-.902 2.992 0 .612.25.918.75.918.744 0 1.95-.982 3.613-2.945v1.753z"/></g><text fill="#FFF" font-family="Helvetica" font-size="10"><tspan x="62.16" y="33.94">scikit</tspan></text></g></svg>