<svg xmlns="http://www.w3.org/2000/svg" width="59" height="60"><defs><linearGradient id="a" x1="14.282%" x2="78.581%" y1="12.039%" y2="78.201%"><stop offset="0%" stop-color="#387EB8"/><stop offset="100%" stop-color="#366994"/></linearGradient><linearGradient id="b" x1="20.23%" x2="89.287%" y1="20.579%" y2="88.429%"><stop offset="0%" stop-color="#FFE052"/><stop offset="100%" stop-color="#FFC331"/></linearGradient></defs><g fill-rule="nonzero" fill="none"><path fill="url(#a)" d="M29.072.138c-14.868 0-13.94 6.566-13.94 6.566l.017 6.802h14.188v2.042H9.514S0 14.45 0 29.726c0 15.277 8.304 14.735 8.304 14.735h4.956v-7.089s-.267-8.456 8.171-8.456h14.072s7.906.13 7.906-7.781V8.054S44.61.138 29.072.138zm-7.823 4.574c1.411 0 2.552 1.162 2.552 2.6 0 1.437-1.14 2.599-2.552 2.599-1.412 0-2.553-1.162-2.553-2.6 0-1.437 1.141-2.599 2.553-2.599z"/><path fill="url(#b)" d="M29.928 59.239c14.868 0 13.94-6.566 13.94-6.566l-.017-6.802H29.663v-2.042h19.823S59 44.927 59 29.65c0-15.277-8.304-14.735-8.304-14.735H45.74v7.089s.267 8.456-8.171 8.456H23.497s-7.906-.13-7.906 7.78v13.082s-1.2 7.916 14.337 7.916zm7.823-4.574c-1.411 0-2.552-1.162-2.552-2.6 0-1.437 1.14-2.599 2.552-2.599 1.412 0 2.553 1.162 2.553 2.6 0 1.437-1.141 2.599-2.553 2.599z"/></g></svg>